<?xml version="1.0" encoding="utf-8"?>
<!-- Generator: Adobe Illustrator 21.0.0, SVG Export Plug-In . SVG Version: 6.00 Build 0)  -->
<svg version="1.1" id="Layer_1" xmlns="http://www.w3.org/2000/svg" xmlns:xlink="http://www.w3.org/1999/xlink" x="0px" y="0px"
	 viewBox="0 0 3600 1884" style="enable-background:new 0 0 3600 1884;" xml:space="preserve">
<style type="text/css">
	.st0{fill:#56B1DA;}
	.st1{fill:#458FB0;}
	.st2{fill:#D0F1F2;}
	.st3{fill:#3D7E9C;}
	.st4{fill:#419BC4;}
	.st5{fill:#FFFFFF;}
	.st6{fill:#3AC5C9;}
	.st7{fill:#49E1E6;}
	.st8{fill:#FEBBB9;}
	.st9{fill:#FE9896;}
	.st10{fill:none;stroke:#3B3E54;stroke-width:13.9378;stroke-linecap:round;stroke-linejoin:round;stroke-miterlimit:10;}
	.st11{fill:#292B3B;}
	.st12{fill:#50515C;}
	.st13{fill:none;stroke:#2B596E;stroke-width:12;stroke-linecap:round;stroke-linejoin:round;stroke-miterlimit:10;}
	.st14{fill:#2B596E;}
	.st15{fill:#B0E6E8;}
	.st16{fill:#E3FEFF;}
	.st17{fill:#5E6175;}
	.st18{fill:#9499B8;}
	.st19{fill:#797D96;}
	.st20{fill:#FE5E5A;}
	.st21{fill:#FFADAB;}
	.st22{fill:#FF908C;}
	.st23{fill:#FF7570;}
	.st24{fill:#1A1C2E;}
	.st25{fill:#FFB0AD;}
	.st26{fill:#FE6B68;}
	.st27{fill:#FE8482;}
	.st28{fill:#FF9F9C;}
	.st29{fill:#3B3E54;}
	.st30{fill:none;stroke:#FE5E5A;stroke-width:15;stroke-linecap:round;stroke-linejoin:round;stroke-miterlimit:10;}
	.st31{fill:none;stroke:#FFFFFF;stroke-width:9;stroke-linecap:round;stroke-linejoin:round;stroke-miterlimit:10;}
</style>
<g>
	<path class="st0" d="M3295.59,1884.06c18.1-57.58,27.88-118.85,27.88-182.41c0-277.33-185.83-511.24-439.75-584.04
		c17.99-43.56,27.93-91.28,27.93-141.33c0-204.66-165.91-370.57-370.57-370.57c-35.18,0-69.21,4.9-101.45,14.06
		c-137.01-220.43-381.33-367.22-659.97-367.22c-360.32,0-663.29,245.43-750.95,578.22c-417.6,12.88-752.19,355.41-752.19,776.13
		c0,97.66,18.08,191.08,50.98,277.17H3295.59z"/>
	<path class="st1" d="M2638.1,1674.78H961.9c-30.98,0-56.09-25.11-56.09-56.09v0c0-30.98,25.11-56.09,56.09-56.09H2638.1
		c30.98,0,56.09,25.11,56.09,56.09v0C2694.19,1649.67,2669.07,1674.78,2638.1,1674.78z"/>
	<g>
		<path class="st2" d="M418.51,174.12c-106.8,0-196.87,71.63-224.79,169.46H643.3C615.38,245.74,525.31,174.12,418.51,174.12z"/>
		<path class="st2" d="M1031.77,174.12c-106.8,0-196.87,71.63-224.79,169.46h449.58C1228.63,245.74,1138.57,174.12,1031.77,174.12z"
			/>
		<path class="st2" d="M739.6,101.52c-152.55,0-281.2,102.31-321.09,242.06h642.17C1020.8,203.83,892.15,101.52,739.6,101.52z"/>
	</g>
	<g>
		<path class="st3" d="M642.23,1383.72c-106.8,0-196.87,71.63-224.79,169.46h449.58C839.09,1455.35,749.03,1383.72,642.23,1383.72z"
			/>
		<path class="st3" d="M1255.48,1383.72c-106.8,0-196.87,71.63-224.79,169.46h449.58
			C1452.35,1455.35,1362.28,1383.72,1255.48,1383.72z"/>
		<path class="st3" d="M963.31,1311.12c-152.55,0-281.2,102.31-321.09,242.06h642.17
			C1244.51,1413.44,1115.86,1311.12,963.31,1311.12z"/>
	</g>
	<g>
		<path class="st4" d="M1210.6,1308.02c-159.12,0-293.31,108.7-334.91,257.16h669.82
			C1503.91,1416.72,1369.72,1308.02,1210.6,1308.02z"/>
		<path class="st4" d="M2124.28,1308.02c-159.12,0-293.31,108.7-334.91,257.16h669.82
			C2417.59,1416.72,2283.4,1308.02,2124.28,1308.02z"/>
		<path class="st4" d="M1688.98,1197.86c-227.28,0-418.96,155.26-478.38,367.33h956.76
			C2107.94,1353.12,1916.26,1197.86,1688.98,1197.86z"/>
	</g>
	<g>
		<path class="st5" d="M456.15,284.43c-64.6,0-119.08,43.33-135.97,102.51h271.94C575.23,327.75,520.75,284.43,456.15,284.43z"/>
		<path class="st5" d="M827.09,284.43c-64.6,0-119.08,43.33-135.97,102.51h271.94C946.18,327.75,891.7,284.43,827.09,284.43z"/>
		<path class="st5" d="M650.37,240.51c-92.28,0-170.09,61.89-194.22,146.42h388.44C820.46,302.4,742.64,240.51,650.37,240.51z"/>
	</g>
	<g>
		<path class="st2" d="M2722.61,834.04c-88.88,0-163.84,59.61-187.08,141.04h374.16C2886.45,893.66,2811.49,834.04,2722.61,834.04z"
			/>
		<path class="st2" d="M3233,834.04c-88.88,0-163.84,59.61-187.08,141.04h374.16C3396.84,893.66,3321.88,834.04,3233,834.04z"/>
		<path class="st2" d="M2989.84,773.62c-126.96,0-234.03,85.15-267.23,201.46h534.45C3223.87,858.77,3116.8,773.62,2989.84,773.62z"
			/>
	</g>
	<g>
		<path class="st6" d="M482.77,1304.74c111.24,111.55,276.07,127.52,276.07,127.52l-402.83-403.95
			C356.02,1028.32,371.54,1193.19,482.77,1304.74z"/>
		<path class="st7" d="M356.02,1028.32l402.83,403.95c0,0-15.52-164.88-126.76-276.42C520.85,1044.29,356.02,1028.32,356.02,1028.32
			z"/>
	</g>
	<g>
		<path class="st6" d="M574.44,983.81c9.13,157.27,121.79,278.65,121.79,278.65l-33.07-569.52
			C663.16,692.94,565.3,826.54,574.44,983.81z"/>
		<path class="st7" d="M663.16,692.94l33.07,569.52c0,0,97.85-133.6,88.72-290.87S663.16,692.94,663.16,692.94z"/>
	</g>
	<g>
		<g>
			<path class="st8" d="M2640.08,1610.18c6.32-38.53,34.93-69.38,72.87-78.57c37.05-8.98,76.09,4.71,99.47,34.84
				c12.26,15.8,9.39,38.54-6.43,50.81c-14.5,11.22-34.86,9.75-47.56-2.8c-1.16-1.12-2.23-2.33-3.25-3.63
				c-5.91-7.63-15.8-11.1-25.18-8.83c-9.6,2.33-16.84,10.14-18.44,19.9c-0.33,1.94-0.79,3.81-1.39,5.63
				c-5.52,16.58-22.43,27.17-40.21,24.26C2650.22,1648.55,2636.84,1629.93,2640.08,1610.18z"/>
		</g>
		<path class="st9" d="M2710.17,1627.52c-4.42-23.61,1.6-44.35,14.26-47.41c12.43-3.01,26.94,12.02,34,34.35
			c-1.16-1.12-2.23-2.33-3.25-3.63c-5.91-7.63-15.8-11.1-25.18-8.83c-9.6,2.33-16.84,10.14-18.44,19.9
			C2711.23,1623.84,2710.77,1625.71,2710.17,1627.52z"/>
	</g>
	<path class="st5" d="M1753.44,1040.38c16.53,0,29.93-13.4,29.93-29.93c0,16.53,13.4,29.93,29.93,29.93
		c-16.53,0-29.93,13.4-29.93,29.93C1783.37,1053.78,1769.97,1040.38,1753.44,1040.38z"/>
	<path class="st5" d="M2278.14,808.42c16.53,0,29.93-13.4,29.93-29.93c0,16.53,13.4,29.93,29.93,29.93
		c-16.53,0-29.93,13.4-29.93,29.93C2308.07,821.82,2294.67,808.42,2278.14,808.42z"/>
	<path class="st5" d="M1516.45,448.2c16.53,0,29.93-13.4,29.93-29.93c0,16.53,13.4,29.93,29.93,29.93
		c-16.53,0-29.93,13.4-29.93,29.93C1546.38,461.6,1532.98,448.2,1516.45,448.2z"/>
	<path class="st5" d="M1845.82,937.15c9.22,0,16.7-7.48,16.7-16.7c0,9.22,7.48,16.7,16.7,16.7c-9.22,0-16.7,7.48-16.7,16.7
		C1862.52,944.62,1855.04,937.15,1845.82,937.15z"/>
	<g>
		<line class="st10" x1="806.98" y1="1143.51" x2="806.98" y2="448.2"/>
		<g>
			<path class="st11" d="M806.98,346.55v128.12c0,0,26.58-28.68,26.58-64.06C833.56,375.23,806.98,346.55,806.98,346.55z"/>
			<path class="st12" d="M780.4,410.61c0,35.38,26.58,64.06,26.58,64.06V346.55C806.98,346.55,780.4,375.23,780.4,410.61z"/>
		</g>
		<g>
			<g>
				<path class="st11" d="M895.92,500.78l-90.59,90.59c0,0,39.08-1.48,64.09-26.5C894.44,539.86,895.92,500.78,895.92,500.78z"/>
				<path class="st12" d="M831.83,527.28c-25.02,25.02-26.5,64.09-26.5,64.09l90.59-90.59
					C895.92,500.78,856.85,502.26,831.83,527.28z"/>
			</g>
			<g>
				<path class="st11" d="M808.63,591.37l-90.59-90.59c0,0,1.48,39.08,26.5,64.09S808.63,591.37,808.63,591.37z"/>
				<path class="st12" d="M782.13,527.28c-25.02-25.02-64.09-26.5-64.09-26.5l90.59,90.59C808.63,591.37,807.15,552.3,782.13,527.28
					z"/>
			</g>
		</g>
		<g>
			<g>
				<path class="st11" d="M895.92,656.64l-90.59,90.59c0,0,39.08-1.48,64.09-26.5C894.44,695.72,895.92,656.64,895.92,656.64z"/>
				<path class="st12" d="M831.83,683.15c-25.02,25.02-26.5,64.09-26.5,64.09l90.59-90.59
					C895.92,656.64,856.85,658.13,831.83,683.15z"/>
			</g>
			<g>
				<path class="st11" d="M808.63,747.24l-90.59-90.59c0,0,1.48,39.08,26.5,64.09C769.56,745.75,808.63,747.24,808.63,747.24z"/>
				<path class="st12" d="M782.13,683.15c-25.02-25.02-64.09-26.5-64.09-26.5l90.59,90.59
					C808.63,747.24,807.15,708.16,782.13,683.15z"/>
			</g>
		</g>
		<g>
			<g>
				<path class="st11" d="M895.92,812.51l-90.59,90.59c0,0,39.08-1.48,64.09-26.5C894.44,851.58,895.92,812.51,895.92,812.51z"/>
				<path class="st12" d="M831.83,839.01c-25.02,25.02-26.5,64.09-26.5,64.09l90.59-90.59
					C895.92,812.51,856.85,813.99,831.83,839.01z"/>
			</g>
			<g>
				<path class="st11" d="M808.63,903.1l-90.59-90.59c0,0,1.48,39.08,26.5,64.09C769.56,901.62,808.63,903.1,808.63,903.1z"/>
				<path class="st12" d="M782.13,839.01c-25.02-25.02-64.09-26.5-64.09-26.5l90.59,90.59C808.63,903.1,807.15,864.03,782.13,839.01
					z"/>
			</g>
		</g>
		<g>
			<g>
				<path class="st11" d="M895.92,968.37l-90.59,90.59c0,0,39.08-1.48,64.09-26.5C894.44,1007.45,895.92,968.37,895.92,968.37z"/>
				<path class="st12" d="M831.83,994.87c-25.02,25.02-26.5,64.09-26.5,64.09l90.59-90.59
					C895.92,968.37,856.85,969.86,831.83,994.87z"/>
			</g>
			<g>
				<path class="st11" d="M808.63,1058.97l-90.59-90.59c0,0,1.48,39.08,26.5,64.09C769.56,1057.48,808.63,1058.97,808.63,1058.97z"
					/>
				<path class="st12" d="M782.13,994.87c-25.02-25.02-64.09-26.5-64.09-26.5l90.59,90.59
					C808.63,1058.97,807.15,1019.89,782.13,994.87z"/>
			</g>
		</g>
	</g>
	<g>
		<line class="st10" x1="2176.92" y1="1358.37" x2="2176.92" y2="1061.54"/>
		<g>
			<path class="st11" d="M2176.92,959.89v128.12c0,0,26.58-28.68,26.58-64.06C2203.5,988.57,2176.92,959.89,2176.92,959.89z"/>
			<path class="st12" d="M2150.34,1023.95c0,35.38,26.58,64.06,26.58,64.06V959.89C2176.92,959.89,2150.34,988.57,2150.34,1023.95z"
				/>
		</g>
		<g>
			<g>
				<path class="st11" d="M2265.86,1114.12l-90.59,90.59c0,0,39.08-1.48,64.09-26.5C2264.38,1153.2,2265.86,1114.12,2265.86,1114.12
					z"/>
				<path class="st12" d="M2201.77,1140.62c-25.02,25.02-26.5,64.09-26.5,64.09l90.59-90.59
					C2265.86,1114.12,2226.79,1115.61,2201.77,1140.62z"/>
			</g>
			<g>
				<path class="st11" d="M2178.57,1204.71l-90.59-90.59c0,0,1.48,39.08,26.5,64.09C2139.5,1203.23,2178.57,1204.71,2178.57,1204.71
					z"/>
				<path class="st12" d="M2152.07,1140.62c-25.02-25.02-64.09-26.5-64.09-26.5l90.59,90.59
					C2178.57,1204.71,2177.09,1165.64,2152.07,1140.62z"/>
			</g>
		</g>
	</g>
	<g>
		<g>
			<g>
				<path class="st13" d="M3132.94,1373.89c0,77.46-56.87,140.25-127.01,140.25c-70.15,0-127.01-62.79-127.01-140.25
					s127.01-333.51,127.01-333.51S3132.94,1296.43,3132.94,1373.89z"/>
				<path class="st13" d="M3079.38,1373.89c0,77.46-32.89,140.25-73.46,140.25s-73.46-62.79-73.46-140.25s73.46-333.51,73.46-333.51
					S3079.38,1296.43,3079.38,1373.89z"/>
				<path class="st13" d="M3029.74,1373.89c0,77.46-10.66,140.25-23.82,140.25c-13.15,0-23.82-62.79-23.82-140.25
					s23.82-333.51,23.82-333.51S3029.74,1296.43,3029.74,1373.89z"/>
			</g>
			
				<rect x="2993.43" y="742.29" transform="matrix(-1 -1.224647e-16 1.224647e-16 -1 6011.8535 1801.5861)" class="st14" width="25" height="317"/>
		</g>
		<path class="st9" d="M3005.93,340.75c-21.02,0-38.07,17.04-38.07,38.07v402.13H3044V378.82
			C3044,357.8,3026.95,340.75,3005.93,340.75z M3018.43,439.05c0,6.9-5.6,12.5-12.5,12.5c-6.9,0-12.5-5.6-12.5-12.5v-50.17
			c0-6.9,5.6-12.5,12.5-12.5c6.9,0,12.5,5.6,12.5,12.5V439.05z"/>
	</g>
	<g>
		<g>
			
				<rect x="2729.15" y="742.29" transform="matrix(-1 -1.224647e-16 1.224647e-16 -1 5483.2974 1801.5861)" class="st14" width="25" height="317"/>
			<path class="st14" d="M2666.35,1370.46h150.59c17.16,0,31.06-16.67,31.06-37.23v-262.29l-106.36-18l-106.36,18v262.29
				C2635.29,1353.79,2649.2,1370.46,2666.35,1370.46z M2781.15,1147.5c0-9.01,7.31-16.32,16.32-16.32c9.01,0,16.32,7.31,16.32,16.32
				v161.63c0,9.01-7.31,16.32-16.32,16.32c-9.01,0-16.32-7.31-16.32-16.32V1147.5z M2725.33,1118.44c0-9.01,7.31-16.32,16.32-16.32
				c9.01,0,16.32,7.31,16.32,16.32v190.69c0,9.01-7.31,16.32-16.32,16.32c-9.01,0-16.32-7.31-16.32-16.32V1118.44z M2669.51,1147.5
				c0-9.01,7.31-16.32,16.32-16.32s16.32,7.31,16.32,16.32v161.63c0,9.01-7.31,16.32-16.32,16.32s-16.32-7.31-16.32-16.32V1147.5z"
				/>
		</g>
		<path class="st9" d="M2741.65,340.75c-21.02,0-38.07,17.04-38.07,38.07v402.13h76.14V378.82
			C2779.72,357.8,2762.67,340.75,2741.65,340.75z M2754.5,439.05c0,6.9-5.6,12.5-12.5,12.5s-12.5-5.6-12.5-12.5v-50.17
			c0-6.9,5.6-12.5,12.5-12.5s12.5,5.6,12.5,12.5V439.05z"/>
	</g>
	<g>
		<g>
			
				<rect x="2458.13" y="742.29" transform="matrix(-1 -1.224647e-16 1.224647e-16 -1 4941.2524 1801.5861)" class="st14" width="25" height="317"/>
			<path class="st14" d="M2580.13,1187.72c0,87.7-49.02,203.79-109.5,203.79c-60.48,0-109.5-116.09-109.5-203.79
				c0-87.7,49.02-134.79,109.5-134.79C2531.1,1052.93,2580.13,1100.03,2580.13,1187.72z"/>
		</g>
		<path class="st9" d="M2470.63,340.75c-21.02,0-38.07,17.04-38.07,38.07v402.13h76.14V378.82
			C2508.7,357.8,2491.65,340.75,2470.63,340.75z M2483.13,439.05c0,6.9-5.6,12.5-12.5,12.5c-6.9,0-12.5-5.6-12.5-12.5v-50.17
			c0-6.9,5.6-12.5,12.5-12.5c6.9,0,12.5,5.6,12.5,12.5V439.05z"/>
	</g>
	<g>
		<path class="st15" d="M2564.32,1452.66c0,71.19-85.11,114.93-201.51,128.07c-24.69,2.79-50.82,4.2-77.82,4.2
			c-27.03,0-53.13-1.41-77.85-4.2c-116.4-13.14-201.51-56.88-201.51-128.07c0-62.22,64.98-128.4,159-160.5
			c43.98-15.03,74.94-54.57,79.83-100.77l3.84-36.36h72.33l3.81,36c4.92,46.29,36,85.92,80.07,100.86
			C2498.98,1323.9,2564.32,1390.26,2564.32,1452.66z"/>
		<path class="st2" d="M2313.07,1191.04l-2.71-36h-51.48l-2.74,36.35c-3.48,46.2-25.52,85.75-56.81,100.76
			c-66.93,32.12-113.16,98.3-113.16,160.5c0,86.31,89.01,132.28,198.81,132.28s198.81-45.97,198.81-132.28
			c0-62.38-46.49-128.75-113.73-160.77C2338.68,1276.95,2316.55,1237.33,2313.07,1191.04z"/>
		<path class="st16" d="M2296.37,1191.04l-1.1-36h-20.89l-1.11,36.35c-1.41,46.2-10.36,85.75-23.05,100.76
			c-27.16,32.12-45.92,98.3-45.92,160.5c0,86.31,36.12,132.28,80.67,132.28s80.67-45.97,80.67-132.28
			c0-62.38-18.87-128.75-46.15-160.77C2306.76,1276.95,2297.79,1237.33,2296.37,1191.04z"/>
		<path class="st14" d="M2362.81,1580.73c-24.69,2.79-50.82,4.2-77.82,4.2c-27.03,0-53.13-1.41-77.85-4.2
			c8.67-8.25,40.23-14.34,77.85-14.34C2322.58,1566.39,2354.14,1572.48,2362.81,1580.73z"/>
	</g>
	<g>
		<path class="st17" d="M1021.8,408.66c-24,0-43.46,19.46-43.46,43.46v511.65c0,24,19.46,43.46,43.46,43.46
			c24,0,43.46-19.46,43.46-43.46V452.12C1065.26,428.12,1045.8,408.66,1021.8,408.66z M1033.8,525.66c0,6.63-5.37,12-12,12
			c-6.63,0-12-5.37-12-12v-59c0-6.63,5.37-12,12-12c6.63,0,12,5.37,12,12V525.66z"/>
		<circle class="st17" cx="1021.8" cy="1263.31" r="342.11"/>
		<path class="st18" d="M1307.41,1263.3c0,157.74-127.89,285.6-285.6,285.6c-88.77,0-168.09-40.5-220.47-104.01
			c-40.71-49.35-65.16-112.62-65.16-181.59c0-157.74,127.89-285.6,285.63-285.6c66.81,0,128.28,22.95,176.91,61.38
			c0,0,0.03,0,0,0.03C1264.93,1091.4,1307.41,1172.37,1307.41,1263.3z"/>
		<path class="st19" d="M1263.94,1220.73c0,157.74-127.86,285.63-285.6,285.63c-66.84,0-128.34-22.98-177-61.47
			c-40.71-49.35-65.16-112.62-65.16-181.59c0-157.74,127.89-285.6,285.63-285.6c66.81,0,128.28,22.95,176.91,61.38
			c0,0,0.03,0,0,0.03C1239.46,1088.46,1263.94,1151.73,1263.94,1220.73z"/>
	</g>
	<g>
		<path class="st20" d="M1233.35,1131.65c-24.01-49.04-88.95-70.12-162.33-61.45c-46.53,5.5-93.39,8.83-140.22,7.52
			c-24.05-0.67-48.02,4.13-70.37,15.08c-84.48,41.37-113.92,154.64-65.76,252.99c48.16,98.35,155.69,144.54,240.17,103.17
			c34.47-16.88,59.74-45.74,74.34-80.66c5.34-12.77,14.26-23.69,25.73-31.44C1218.44,1280.39,1263.8,1193.81,1233.35,1131.65z"/>
		<path class="st21" d="M1023.84,1426.48c-71.95,35.24-164.67-5.9-206.69-91.7c-42.02-85.8-17.66-184.27,54.29-219.51
			c18.17-8.9,37.91-13.12,58.67-12.54c42.93,1.2,89.98-1.32,143.86-7.69c65.24-7.71,118.98,10.97,136.92,47.6
			c23.63,48.24-15.05,122.82-89.97,173.46c-15.53,10.5-27.57,25.2-34.81,42.52C1073.25,1389.37,1051.72,1412.83,1023.84,1426.48z"/>
		<path class="st22" d="M1093.01,1315.42c0,0-12.36-29.5-34.23-30.96c-21.87-1.45-13.21,68,11.09,67.76
			C1094.17,1351.99,1093.01,1315.42,1093.01,1315.42z"/>
		<path class="st22" d="M961.22,1115.08c-5.95-0.87-85.08-13.35-128.46,53.39c-43.38,66.73-16.68,206.87,96.76,241.91
			c113.45,35.03,101.77-50.05,101.77-56.72c0-6.67-5.15-65.25,14.94-97.69C1066.33,1223.53,1029.62,1125.09,961.22,1115.08z"/>
		<path class="st22" d="M1069.63,1113.61c-6.66,1.63-38.33,0.05-31.66,23.4c6.67,23.36,46.71,179.74,95.09,147.43
			c48.38-32.31,81.48-77,68.4-122.4C1188.38,1116.64,1140.36,1096.3,1069.63,1113.61z"/>
		<g>
			<path class="st5" d="M1001.01,1244.74c-6.12-12.51-21.91-18.06-39.18-15.3c-8.65,1.38-17.37,2.09-26.12,1.68
				c-9.12-0.43-18.53,1.82-27.04,7.17c-18.31,11.5-26.35,34.69-19.04,55.04c9.58,26.68,39.8,38.44,64.53,26.32
				c7.29-3.57,13.22-8.79,17.58-14.98c4.65-6.61,9.74-12.92,15.83-18.23C1001.42,1274.36,1007.37,1257.73,1001.01,1244.74z"/>
			<path class="st23" d="M947.55,1306.17c-8.08,3.96-17.49,4.28-25.84,0.9c-8.45-3.43-14.83-10.11-17.95-18.81
				c-4.95-13.78,0.47-29.45,12.89-37.25c0.99-0.62,2.02-1.19,3.05-1.7c4.82-2.36,9.97-3.43,15.3-3.18
				c9.16,0.43,18.71-0.18,29.19-1.86c10.84-1.74,20.44,1.17,23.33,7.07c3.07,6.27-0.97,16.05-9.83,23.78
				c-6.23,5.43-12.03,12.07-18.25,20.91C956.38,1300.4,952.37,1303.81,947.55,1306.17z"/>
		</g>
		<circle class="st22" cx="932.4" cy="1279.03" r="16.45"/>
	</g>
	<g>
		<path class="st5" d="M1953.06,952.15c0,0-1.88-175.96,32.45-203.99c34.33-28.03,55.07,139.24,1.38,231.07L1953.06,952.15z"/>
		<g>
			<path class="st5" d="M1949.62,953.15c-1.31-23.3,36.32-1.72,48.21-7.43c120.26,564.9-328.14,574.6-586.29,165.5
				c-71.9-113.93,38.06-145.84,113.75-30.61C1749.13,1421.35,1974.98,1403.12,1949.62,953.15z"/>
		</g>
		<path class="st5" d="M1579.56,1178.21v422.47h-329.85v-422.47c0-45.55,18.46-86.76,48.31-116.61c9.61-9.61,20.4-18.05,32.16-25.08
			c24.69-14.75,53.6-23.24,84.46-23.24c43.12,0,82.39,16.54,111.78,43.66C1559.08,1087.09,1579.56,1130.26,1579.56,1178.21z"/>
		<path class="st5" d="M1336.79,849.2c39.94,98.16,140.7,149.9,200.68,125.49c59.98-24.41,56.48-115.73,16.54-213.89
			c-39.94-98.16-108.9-128.32-168.88-103.91C1325.15,681.31,1296.85,751.05,1336.79,849.2z"/>
		<path class="st5" d="M1472.12,1055.88c-1.62,6.72-7.02,11.97-14.85,15.39c-1.98,0.87-4.11,1.62-6.39,2.22
			c-11.16,3.12-25.53,3.21-40.47-0.42c-26.97-6.54-46.5-22.95-47.25-38.4h-0.12c1.23-12,1.02-32.61,0-56.49
			c-0.15-2.97-0.27-6-0.42-9.06c-1.95-39.33-5.73-85.35-8.76-116.43l110.79-10.83c1.08,11.07,7.56,90.96,8.79,154.5
			c0.06,2.67,0.09,5.34,0.12,7.95C1473.83,1024.65,1473.47,1042.86,1472.12,1055.88z"/>
		<path class="st5" d="M1479.28,990.88l-14.66,19.36l-15.87,3.05l-6.38-4.41l-28.62-2.61l-27.88-12.89l-27.12-24.26
			c0.63,18.41,0.33,55.74-0.78,65.55h0.13c0.83,15.45,22.31,31.86,51.98,38.4c16.43,3.63,32.24,3.54,44.52,0.42
			c2.51-0.6,4.85-1.35,7.03-2.22c8.61-3.42,14.55-8.67,16.34-15.39C1479.45,1042.86,1479.33,992.72,1479.28,990.88z"/>
		<path class="st24" d="M1524.43,679.71c-2.38-3.35-4.92-6.21-7.44-9.15c4.93-7.14,8.81-15.7,5.29-23.35
			c-4.35-9.47-16.81-11.2-27.22-11.63c0.79-9.27,0.5-18.96-3.49-27.36c-3.99-8.41-12.4-15.23-21.7-15.02
			c-8.93,0.2-13.85,3.02-21.31-3.27c-4.73-3.98-6.35-11.13-11.57-14.65c-6.18-4.17-14.41,2.61-16.41,9.78s-0.97,15.16-4.31,21.81
			c-2.75,5.47-8.02,9.13-12.46,13.34c-6.43,6.1-11.17,13.59-14.89,21.66c-22.89,8.52-43.12,22.02-56.73,36.58
			c-9.5,10.16-16.41,21.95-21.51,34.01c-1.16,0.81-2.33,1.59-3.64,2.12c-2.84,1.16-5.97,1.41-8.96,2.09
			c-13.9,3.17-24.31,16.03-27.17,30c-2.86,13.97,0.9,28.66,7.65,41.22c3.64,6.78,8.32,13.89,7.1,21.49
			c-0.54,3.37-2.22,6.42-3.49,9.58c-3.72,9.21-3.95,20.05,0.63,28.86c4.58,8.81,14.33,15.06,24.22,14.26
			c3.49-0.28,6.85-1.37,10.17-2.5c5.21-1.77,12.28-3.65,19.37-5.98c15.05-3.2,33.2-11.26,46.51-37.76
			c25.76-51.26,25.28-5.3,100.61-40.94C1559.03,739.23,1524.43,679.71,1524.43,679.71z"/>
		<g>
			<path class="st5" d="M1321.32,1220.99c-87.96,174.3-147.12,286.77-136.56,379.68h-91.14
				c-16.62-118.32,30.18-268.14,136.17-464.64C1299.9,1006.01,1384.98,1094.9,1321.32,1220.99z"/>
		</g>
		<path class="st5" d="M1306.33,893.82c9.3,22.85,43.87,42.84,60.42,36.1c16.54-6.73,13.15-26.94,3.85-49.79
			c-9.3-22.85-31.41-38.76-47.95-32.03C1306.1,854.84,1297.03,870.97,1306.33,893.82z"/>
		<g>
			<path class="st24" d="M1500.38,1600.71l-6-0.03c0-5.01,1.98-500.19,0-515.4c-0.3-2.37-1.05-5.37-2.94-6.21
				c-2.31-1.02-6.18,1.05-7.35,1.86l-0.57,0.42l-0.72,0.09c-18.54,2.7-27.84-3.54-31.92-7.95c-1.92-2.07-2.73-3.72-2.82-3.93
				l-0.24-0.57l-0.03-0.63c0-0.21-0.42-20.73,0-41.55c0.12-5.91-1.32-10.35-4.29-13.2c-4.08-3.93-9.87-3.72-9.96-3.72
				c-28.47,4.29-60.69-20.35-75.36-34.72c-0.15-2.97-0.27-6-0.42-9.06c12.15,12.75,46.08,42.19,75.15,37.81
				c0.63-0.06,8.76-0.45,14.76,5.37c0.39,0.39,0.78,0.78,1.11,1.2c1.32,1.53,2.37,3.27,3.15,5.22c1.32,3.18,1.95,6.93,1.86,11.22
				c-0.36,18.51-0.09,36.75,0,40.59c0.45,0.72,1.5,2.22,3.48,3.75c3.81,2.94,11.1,6.06,24.03,4.32c1.95-1.2,7.53-4.2,12.57-2.01
				c3.57,1.59,5.76,5.25,6.48,10.95C1502.36,1100.1,1500.44,1580.25,1500.38,1600.71z"/>
		</g>
		<g>
			<circle class="st24" cx="1460.21" cy="1121.04" r="8.16"/>
			<circle class="st24" cx="1460.21" cy="1215.71" r="8.16"/>
			<circle class="st24" cx="1460.21" cy="1310.38" r="8.16"/>
			<circle class="st24" cx="1460.21" cy="1405.05" r="8.16"/>
			<circle class="st24" cx="1460.21" cy="1499.72" r="8.16"/>
			<circle class="st24" cx="1388.03" cy="1121.04" r="8.16"/>
			<circle class="st24" cx="1388.03" cy="1215.71" r="8.16"/>
			<circle class="st24" cx="1388.03" cy="1310.38" r="8.16"/>
			<circle class="st24" cx="1388.03" cy="1405.05" r="8.16"/>
			<circle class="st24" cx="1388.03" cy="1499.72" r="8.16"/>
		</g>
		<g>
			<path class="st24" d="M1479.37,997.94c-8.31,6.72-22.43,16.69-27.43,17.77c-0.96,0.21-1.5,0.45-1.62,0.48l-1.53-5.7l-0.03-0.09
				c0.18-0.06,20.77-10.48,30.49-20.41C1479.31,992.66,1479.34,995.33,1479.37,997.94z"/>
		</g>
		<g>
			<path class="st5" d="M1162.27,579.57l107.01,159.03c5.58,8.29,47.01-8.99,92.54-38.6c45.53-29.61,77.91-60.33,72.33-68.63
				l-107.01-159.03L1162.27,579.57z"/>
			<path class="st5" d="M1362.94,550.1l-146.11,95.03c-27.82,18.09-65.3,10.59-83.7-16.76v0c-18.4-27.35-10.77-64.19,17.05-82.29
				l146.11-95.03c27.82-18.09,65.29-10.59,83.7,16.76l0,0C1398.39,495.16,1390.76,532,1362.94,550.1z"/>
			<path class="st5" d="M1256.35,650.89l-74.15-110.19c-18.4-27.35-10.77-64.19,17.05-82.29l0,0c27.82-18.09,65.3-10.59,83.7,16.76
				l74.15,110.19c18.4,27.35,10.77,64.19-17.05,82.29l0,0C1312.23,685.74,1274.75,678.24,1256.35,650.89z"/>
		</g>
		<g>
			<path class="st24" d="M1542.37,868.4c-4.27-2.43-9.59-0.35-11.32,4.24c-1.15,3.04-2.55,6.03-4.21,8.95
				c-15.89,27.89-49.84,39.01-78.75,27.07c2.11,1.59,4.33,3.07,6.69,4.41c30.24,17.23,68.73,6.67,85.96-23.57
				c2.22-3.9,3.98-7.94,5.29-12.05C1547.14,873.98,1545.54,870.21,1542.37,868.4L1542.37,868.4z"/>
			<path class="st24" d="M1539.88,869.59c0.81-4.85,5.78-7.66,10.44-6.1c3.08,1.03,6.28,1.84,9.59,2.39
				c31.66,5.3,61.73-13.99,70.73-43.95c-0.11,2.64-0.36,5.3-0.81,7.97c-5.75,34.33-38.24,57.49-72.57,51.74
				c-4.43-0.74-8.67-1.93-12.69-3.51C1541.19,876.8,1539.28,873.18,1539.88,869.59L1539.88,869.59z"/>
		</g>
	</g>
	<g>
		<g>
			<polygon class="st25" points="1455.2,1600.78 1437.5,1611 1416.58,1623.08 1381.22,1643.5 1360.26,1655.6 1324.93,1676 
				1303.97,1688.1 1282.28,1700.63 1286.51,1688.1 1290.6,1676 1297.49,1655.6 1301.59,1643.5 1308.49,1623.08 1312.57,1611 
				1316.03,1600.78 1312.59,1590.58 1308.49,1578.48 1301.59,1558.08 1297.51,1545.98 1290.6,1525.56 1286.51,1513.47 
				1282.28,1500.95 1303.97,1513.47 1324.92,1525.56 1360.27,1545.98 1381.23,1558.08 1416.56,1578.48 1437.53,1590.58 			"/>
			<g>
				<polygon class="st20" points="1324.92,1525.56 1290.6,1525.56 1286.51,1513.47 1303.97,1513.47 				"/>
				<polygon class="st20" points="1381.23,1558.08 1301.59,1558.08 1297.51,1545.98 1360.27,1545.98 				"/>
				<polygon class="st20" points="1437.53,1590.58 1312.59,1590.58 1308.49,1578.48 1416.56,1578.48 				"/>
				<polygon class="st20" points="1437.5,1611 1416.58,1623.08 1308.49,1623.08 1312.57,1611 				"/>
				<polygon class="st20" points="1381.22,1643.5 1360.26,1655.6 1297.49,1655.6 1301.59,1643.5 				"/>
				<polygon class="st20" points="1324.93,1676 1303.97,1688.1 1286.51,1688.1 1290.6,1676 				"/>
			</g>
		</g>
		<g>
			<path class="st25" d="M2076.65,1533.59h-152.33l-9.14-30.28l-7.72-25.58l-11.35-37.59l11.35,2.04l7.72,1.39l13.43,2.42l7.72,1.38
				l13.43,2.42l7.72,1.39l13.43,2.42l7.72,1.39l13.43,2.4l7.72,1.39l13.43,2.42l3.37,0.6c1.47,0.26,2.92,0.57,4.35,0.92
				c4.68,1.13,9.19,2.7,13.43,4.68c2.67,1.24,5.24,2.63,7.72,4.16c4.91,3.04,9.41,6.63,13.43,10.7c2.81,2.86,5.39,5.94,7.72,9.22
				C2071.74,1503.44,2076.65,1518.02,2076.65,1533.59z"/>
			<g>
				<polygon class="st26" points="1915.18,1443.56 1915.18,1503.3 1907.46,1477.72 1907.46,1442.17 				"/>
				<polygon class="st26" points="1936.33,1447.35 1936.33,1533.59 1928.61,1533.59 1928.61,1445.98 				"/>
				<polygon class="st26" points="1957.49,1451.16 1957.49,1533.59 1949.77,1533.59 1949.77,1449.77 				"/>
				<polygon class="st26" points="1978.64,1454.97 1978.64,1533.59 1970.92,1533.59 1970.92,1453.58 				"/>
				<polygon class="st26" points="1999.8,1458.76 1999.8,1533.59 1992.07,1533.59 1992.07,1457.37 				"/>
				<path class="st26" d="M2020.95,1462.7v70.88h-7.72v-72.41l3.37,0.6C2018.06,1462.04,2019.52,1462.35,2020.95,1462.7z"/>
				<path class="st26" d="M2042.1,1471.54v62.04h-7.72v-66.2C2037.06,1468.63,2039.63,1470.02,2042.1,1471.54z"/>
				<path class="st26" d="M2063.26,1491.46v42.13h-7.72v-51.35C2058.35,1485.1,2060.93,1488.18,2063.26,1491.46z"/>
			</g>
		</g>
		<g>
			<path class="st20" d="M2227.61,1600.78c0,0-13.36,46.84-105.88,73.26c-36.31,10.37-84.84,17.59-149.55,17.59
				c-229.51,0-575.75-40.66-575.75-90.84H2227.61z"/>
			<path class="st27" d="M2227.61,1600.78h-831.17c0-50.17,346.24-90.84,575.75-90.84c64.7,0,113.24,7.22,149.55,17.59
				C2214.25,1553.94,2227.61,1600.78,2227.61,1600.78z"/>
		</g>
		<g>
			<path class="st27" d="M2042.31,1645.54c0.41,0.94,0.75,1.9,0.98,2.87c0.65,2.56,0.69,5.21-0.04,7.97
				c-0.71,2.77-2.18,5.66-4.57,8.62c-5.45,6.79-15.68,13.99-32.5,21.4c-12.03,5.3-26.43,8.55-40.06,10.56
				c-7.03,1.03-13.83,1.73-20.01,2.21c-8.16,0.62-15.21,0.85-20.15,0.92c-4.71,0.07-7.5,0-7.5,0s1.83-2.11,5.06-5.53
				c3.38-3.6,8.32-8.67,14.3-14.27c4.51-4.23,9.62-8.78,15.11-13.26c10.68-8.7,22.8-17.13,34.84-22.42
				c16.82-7.41,29.04-10.1,37.72-9.53c3.8,0.24,6.92,1.1,9.45,2.44c2.53,1.33,4.48,3.16,5.91,5.37
				C2041.41,1643.7,2041.89,1644.6,2042.31,1645.54z"/>
			<g>
				<path class="st5" d="M2034.94,1637.51l-97.12,42.77c4.51-4.23,9.62-8.78,15.11-13.26l72.56-31.96
					C2029.29,1635.31,2032.41,1636.16,2034.94,1637.51z"/>
				<path class="st5" d="M2042.31,1645.54c0.41,0.94,0.75,1.9,0.98,2.87l-117.34,51.68c-4.71,0.07-7.5,0-7.5,0s1.83-2.11,5.06-5.53
					l117.34-51.68C2041.41,1643.7,2041.89,1644.6,2042.31,1645.54z"/>
				<path class="st5" d="M2043.25,1656.39c-0.71,2.77-2.18,5.66-4.57,8.62l-72.56,31.96c-7.03,1.03-13.83,1.73-20.01,2.21
					L2043.25,1656.39z"/>
			</g>
		</g>
		<path class="st28" d="M2227.61,1600.78c0,0-13.36,46.84-105.88,73.26c-14.43-20.79-22.88-46.04-22.88-73.26
			c0-27.23,8.45-52.46,22.88-73.25C2214.25,1553.94,2227.61,1600.78,2227.61,1600.78z"/>
		<path class="st5" d="M2098.97,1600.78c0-24.16,6.51-46.64,17.69-65.52c-17.28,17.45-27.79,40.38-27.79,65.52
			c0,25.14,10.51,48.07,27.79,65.52C2105.48,1647.42,2098.97,1624.94,2098.97,1600.78z"/>
		<circle class="st5" cx="2157.78" cy="1589.53" r="19.14"/>
		<circle class="st20" cx="2157.78" cy="1589.53" r="15.11"/>
		<circle class="st29" cx="2157.78" cy="1589.53" r="11.58"/>
		<circle class="st5" cx="2161.62" cy="1579.84" r="5.86"/>
	</g>
	
		<ellipse transform="matrix(0.1776 -0.9841 0.9841 0.1776 -320.9979 2155.5139)" class="st24" cx="1129.14" cy="1269.81" rx="14.42" ry="14.42"/>
	
		<ellipse transform="matrix(0.1776 -0.9841 0.9841 0.1776 -254.7116 2128.0149)" class="st24" cx="1145.83" cy="1216.4" rx="14.42" ry="14.42"/>
	
		<ellipse transform="matrix(0.1776 -0.9841 0.9841 0.1776 -405.2297 2062.2573)" class="st24" cx="1031.23" cy="1273.58" rx="14.42" ry="14.42"/>
	
		<ellipse transform="matrix(0.1776 -0.9841 0.9841 0.1776 -465.7651 1838.382)" class="st24" cx="867.02" cy="1197.86" rx="14.42" ry="14.42"/>
	<g>
		<path class="st6" d="M971.29,1090.05c-26.05,48.21-14.9,104.73-14.9,104.73l94.33-174.59
			C1050.72,1020.19,997.34,1041.84,971.29,1090.05z"/>
		<path class="st7" d="M1050.72,1020.19l-94.33,174.59c0,0,53.38-21.65,79.43-69.86C1061.87,1076.7,1050.72,1020.19,1050.72,1020.19
			z"/>
	</g>
	<g>
		<rect x="2246.68" y="247.35" class="st17" width="983.65" height="47.68"/>
		<g>
			<line class="st30" x1="2470.63" y1="402.7" x2="2470.63" y2="271.19"/>
			<line class="st30" x1="2742" y1="402.7" x2="2742" y2="271.19"/>
			<line class="st30" x1="3005.93" y1="402.7" x2="3005.93" y2="271.19"/>
		</g>
	</g>
	<path class="st31" d="M1837.39,418.77c0-31.72,12-31.72,12-63.45c0-31.72-12-31.72-12-63.45c0-31.72,12-31.72,12-63.45
		c0-31.73-12-31.73-12-63.46s12-31.73,12-63.46"/>
	<path class="st31" d="M1795.37,222.64c0,32.86-12,32.86-12,65.71c0,32.86,12,32.86,12,65.71c0,32.86-12,32.86-12,65.72
		c0,32.86,12,32.86,12,65.72c0,32.86-12,32.86-12,65.72"/>
	<g>
		<g>
			<path class="st8" d="M2600.05,1475.12c27.98,27.24,36.89,68.35,22.71,104.72c-13.85,35.52-47.42,59.69-85.51,61.62
				c-19.97,1.01-36.98-14.37-37.97-34.36c-0.9-18.31,11.96-34.16,29.52-37.39c1.58-0.31,3.19-0.49,4.84-0.58
				c9.63-0.48,18.15-6.6,21.65-15.59c3.59-9.21,1.32-19.61-5.76-26.51c-1.4-1.38-2.68-2.83-3.82-4.36
				c-10.43-14.02-9.44-33.94,3.13-46.85C2562.79,1461.48,2585.71,1461.17,2600.05,1475.12z"/>
		</g>
		<path class="st9" d="M2545.7,1522.67c21.89,9.9,35.45,26.7,30.71,38.84c-4.65,11.92-25.28,15.21-47.62,8.21
			c1.58-0.31,3.19-0.49,4.84-0.58c9.63-0.48,18.15-6.6,21.65-15.59c3.59-9.21,1.32-19.61-5.76-26.51
			C2548.12,1525.65,2546.85,1524.2,2545.7,1522.67z"/>
	</g>
	<g>
		<g>
			<path class="st6" d="M2148.49,556.12c31.35-60.39,16.35-130.33,16.35-130.33l-113.54,218.7
				C2051.3,644.48,2117.14,616.51,2148.49,556.12z"/>
			<path class="st7" d="M2051.3,644.48l113.54-218.7c0,0-65.84,27.97-97.19,88.36C2036.3,574.54,2051.3,644.48,2051.3,644.48z"/>
		</g>
		<g>
			<path class="st6" d="M2204.01,611.14c55.5-39.37,74.13-108.43,74.13-108.43l-200.97,142.58
				C2077.17,645.29,2148.51,650.51,2204.01,611.14z"/>
			<path class="st7" d="M2077.17,645.29l200.97-142.58c0,0-71.34-5.23-126.84,34.15C2095.81,576.22,2077.17,645.29,2077.17,645.29z"
				/>
		</g>
		<g>
			<path class="st27" d="M2090.77,584.83c0,73.59-59.65,133.25-133.28,133.25c-30.6,0-58.79-10.32-81.29-27.67
				c-31.6-24.36-51.96-62.59-51.96-105.58c0-67.56,50.2-123.31,115.31-132.08c5.87-0.79,11.87-1.21,17.94-1.21
				C2031.11,451.55,2090.77,511.2,2090.77,584.83z"/>
			<path class="st28" d="M1991.54,558.33c0,67.52-50.24,123.31-115.34,132.08c-31.6-24.36-51.96-62.59-51.96-105.58
				c0-67.56,50.2-123.31,115.31-132.08C1971.18,477.11,1991.54,515.34,1991.54,558.33z"/>
		</g>
		<path class="st2" d="M2011.23,237.93c-73.24,25.24-42.6,78.7-55.47,111.18c-12.86,32.48-35.21,31.97-39.2,79.09
			s56.66,55.53,56.66,55.53c90.64,9.83,125.67-93.9,142.8-162.17C2133.13,253.3,2084.47,212.69,2011.23,237.93z M2039.82,251.42
			c16.59,7.76,11.8,28.02-7.88,30.8c0,0-23.49,9.52-30.48-4.76C1994.47,263.2,2023.24,243.66,2039.82,251.42z M1986.94,307.38
			c15.4-18.84,61.11-11.99,60.95,9.14c-0.17,21.13-33.79,23.23-33.79,23.23C1988.92,347.73,1971.54,326.22,1986.94,307.38z
			 M1965.84,363.32c11.92-14.11,46.52-8.33,46.13,7.7c-0.39,16.03-25.92,17.21-25.92,17.21
			C1966.84,393.97,1953.92,377.43,1965.84,363.32z M1935.9,435.5c-7.4-12.26,11.26-25.4,11.26-25.4c11.7-13.54,29.37-7.3,27.17,9.05
			C1972.12,435.49,1943.3,447.75,1935.9,435.5z M2009.79,461.19c-3.52,13.88-25.98,9.84-25.98,9.84
			c-17.86,1.19-25.83-15.77-12.66-25.69C1984.33,435.43,2013.31,447.31,2009.79,461.19z M2043.35,429.4
			c-7.44,14.84-31.88,4.68-31.88,4.68c-20.52-3.09-25.34-24.29-7.94-32.24C2020.92,393.88,2050.79,414.55,2043.35,429.4z
			 M2085.12,362.35c-3.25,24.05-45.66,42.1-56.55,24.06c-10.89-18.04,16.57-37.38,16.57-37.38
			C2062.36,329.1,2088.36,338.29,2085.12,362.35z M2071.96,316.23c-16.21-4.56-10.79-30.85-10.79-30.85
			c-0.86-21.03,19.32-29.9,30.58-14.1C2103.02,287.07,2088.17,320.79,2071.96,316.23z"/>
		<path class="st17" d="M1841.8,591.9c13.97,47.91,32.89,84.54,32.89,84.54s-3.73-41.05-17.7-88.96
			c-13.97-47.91-32.89-84.54-32.89-84.54S1827.83,543.99,1841.8,591.9z"/>
		<path class="st17" d="M1880.01,572.28c-11.57,48.55-13.25,89.74-13.25,89.74s17.07-37.52,28.64-86.07s13.25-89.74,13.25-89.74
			S1891.58,523.73,1880.01,572.28z"/>
		<g>
			<path class="st5" d="M1868.47,755.66h247.2c67.16-31.76,111.93-88.59,111.93-153.45h-471.06
				C1756.54,667.06,1801.32,723.9,1868.47,755.66z"/>
			<rect x="1613.26" y="599.37" class="st5" width="757.63" height="25.18"/>
		</g>
	</g>
</g>
</svg>
